<?xml version="1.0" standalone="no"?>
<!DOCTYPE svg PUBLIC "-//W3C//DTD SVG 20010904//EN"
 "http://www.w3.org/TR/2001/REC-SVG-20010904/DTD/svg10.dtd">
<svg version="1.0" xmlns="http://www.w3.org/2000/svg"
 width="700.000000pt" height="700.000000pt" viewBox="0 0 700.000000 700.000000"
 preserveAspectRatio="xMidYMid meet">
<metadata>
Created by potrace 1.11, written by Peter Selinger 2001-2013
</metadata>
<g transform="translate(0.000000,700.000000) scale(0.100000,-0.100000)"
fill="#000000" stroke="none">
<path d="M5517 6974 c-1 -1 -45 -4 -97 -7 -52 -3 -102 -8 -110 -11 -8 -3 -40
-7 -70 -10 -30 -3 -80 -10 -110 -16 -30 -6 -66 -13 -80 -16 -14 -2 -59 -11
-100 -19 -41 -9 -84 -17 -95 -19 -135 -27 -423 -118 -587 -185 -152 -63 -302
-129 -351 -155 -25 -14 -83 -44 -129 -67 -46 -23 -129 -69 -185 -101 -56 -32
-107 -58 -113 -58 -6 0 -50 23 -98 52 -311 185 -754 377 -1087 471 -203 58
-430 100 -602 113 -252 18 -493 6 -683 -36 -424 -92 -721 -349 -883 -765 -43
-111 -74 -238 -92 -380 -7 -53 -7 -290 0 -357 15 -145 27 -238 35 -283 5 -27
12 -66 15 -85 41 -250 162 -619 310 -950 55 -124 210 -433 253 -507 27 -46 31
-60 28 -115 -2 -49 -9 -74 -33 -113 -64 -108 -193 -355 -241 -465 -19 -41 -41
-91 -50 -110 -70 -155 -208 -556 -237 -688 -88 -403 -109 -555 -109 -772 1
-375 126 -705 353 -930 202 -200 379 -295 706 -377 17 -4 201 -8 410 -9 407
-3 445 0 671 56 201 49 470 138 614 203 30 13 107 47 170 76 118 53 321 159
468 246 74 43 86 47 104 36 12 -7 37 -22 57 -33 20 -12 59 -34 86 -49 268
-154 688 -334 960 -414 122 -36 298 -79 370 -89 17 -3 62 -11 100 -18 48 -9
169 -13 390 -13 319 0 320 0 435 29 413 103 713 317 878 626 58 109 120 293
137 405 3 22 9 65 14 95 9 52 7 332 -3 395 -2 17 -7 53 -11 80 -3 28 -8 57
-10 65 -2 8 -7 35 -10 59 -19 133 -176 685 -233 821 -6 14 -27 66 -46 115 -48
125 -148 341 -243 527 l-81 157 2 88 c2 85 4 91 50 173 149 267 305 618 406
915 33 97 95 314 106 370 2 11 6 31 9 45 16 72 55 323 61 384 3 39 8 74 10 78
5 8 5 293 0 328 -2 14 -7 47 -10 74 -9 78 -53 239 -92 339 -65 169 -154 314
-256 416 -62 63 -210 175 -288 219 -105 59 -282 119 -402 137 -24 4 -45 8 -49
10 -10 7 -325 25 -332 19z m-3982 -378 c112 -10 160 -17 285 -42 278 -56 548
-145 878 -291 l152 -68 -47 -13 c-93 -26 -248 -74 -278 -87 -16 -7 -61 -25
-100 -40 -38 -15 -132 -60 -208 -98 -367 -186 -675 -442 -952 -791 -80 -100
-213 -317 -284 -461 -115 -232 -181 -423 -238 -683 l-18 -83 -88 170 c-85 166
-164 339 -214 471 -90 239 -160 490 -188 680 -3 20 -7 45 -9 55 -6 35 -18 159
-21 231 -4 94 9 168 51 299 112 344 319 573 615 680 63 22 94 31 184 51 26 6
169 23 220 26 54 4 187 1 260 -6z m4290 0 c22 -4 49 -9 61 -11 12 -3 38 -7 59
-11 62 -10 207 -60 287 -99 239 -119 423 -350 513 -649 34 -112 37 -253 10
-456 -3 -19 -8 -55 -11 -80 -26 -210 -152 -636 -254 -857 -11 -24 -20 -45 -20
-47 0 -2 -14 -35 -32 -73 -17 -37 -32 -70 -33 -73 0 -3 -32 -67 -70 -142 -39
-78 -72 -132 -76 -125 -4 6 -10 30 -13 52 -48 277 -207 671 -384 945 -150 234
-399 512 -602 674 -323 258 -684 436 -1100 544 l-35 9 99 48 c363 173 827 313
1161 350 33 4 61 8 63 10 5 5 339 -3 377 -9z m-5091 -3649 c21 -136 90 -378
141 -502 7 -16 23 -55 35 -85 98 -243 289 -544 478 -757 370 -417 816 -696
1361 -853 l74 -22 -99 -45 c-335 -152 -745 -282 -999 -318 -22 -3 -46 -8 -53
-10 -54 -18 -385 -27 -512 -13 -327 35 -600 187 -771 429 -73 102 -147 259
-169 355 -11 45 -14 289 -5 359 2 17 6 55 10 85 42 359 180 784 397 1225 75
153 99 197 103 193 2 -1 6 -20 9 -41z m5596 -154 c39 -81 83 -174 96 -207 14
-34 32 -76 40 -93 40 -87 143 -388 174 -505 21 -82 55 -242 64 -303 4 -23 8
-50 10 -62 29 -149 26 -487 -5 -598 -47 -169 -227 -406 -386 -509 -121 -78
-301 -145 -435 -162 -24 -3 -54 -8 -68 -10 -95 -19 -465 -6 -580 20 -14 3 -38
8 -54 11 -102 16 -293 65 -441 113 -209 68 -614 238 -577 243 14 2 12 1 72 18
62 17 171 51 195 61 11 4 63 25 115 45 52 21 158 70 235 110 590 303 1062 818
1310 1431 52 129 120 337 131 404 3 14 9 39 14 55 6 17 11 42 12 58 1 15 3 27
4 27 2 0 35 -66 74 -147z"/>
</g>
</svg>
