<svg version="1" xmlns="http://www.w3.org/2000/svg" width="933.333" height="933.333" viewBox="0 0 700.000000 700.000000"><path d="M132 14.3c-4.7 7.8-9.2 15.3-10.1 16.7-.9 1.4-19.8 32.9-42 70-22.1 37.1-49 82.1-59.8 100C9.4 218.9.7 234.3.8 235.3c0 1 1.2 3.4 2.6 5.2 1.4 1.9 2.6 3.6 2.6 3.8 0 .2 2.5 4.7 5.6 9.8 3.1 5.2 6.5 10.7 7.4 12.4 1 1.6 12.6 21.1 25.9 43.3L69 350.1 55.3 373c-7.6 12.7-14.6 24.2-15.5 25.7-1 1.6-2.6 4.4-3.6 6.3-1.1 1.9-9.6 16.3-19 31.9C.5 464.6.1 465.3 1.5 467.9c2.4 4.1 3.7 6.3 6.7 10.8 1.5 2.3 2.8 4.4 2.8 4.7 0 .3 1.5 2.9 3.3 5.8 1.7 2.9 3.9 6.5 4.7 7.9 2.9 5 22.3 37.4 24.5 40.9 2.3 3.7 5.9 9.6 8.5 14.1.8 1.4 4.7 7.9 8.5 14.3 3.9 6.4 7.5 12.4 8 13.4.6.9 2.3 3.9 3.9 6.7 1.6 2.7 4.4 7.2 6.1 10 1.8 2.7 16.4 27.1 32.5 54.2l29.4 49.2H211l70.5-.1 14.5-24.5c8-13.5 15.7-26.4 17.1-28.7 4.3-6.7 31.2-51.8 33.5-56.1 1.2-2.1 2.6-4.1 3-4.2.5-.2 10.7 16 22.6 35.9 12 20 24.9 41.5 28.7 47.8 3.9 6.3 8 13.2 9.1 15.3 1.2 2.1 3.7 6.2 5.5 9.2l3.5 5.4h140.6l20.5-34.1c11.2-18.8 21.3-35.7 22.4-37.7 1.1-2 23.4-39.2 49.4-82.6 26.1-43.5 47.5-79.3 47.7-79.6.2-.3-4.9-9.3-11.3-20s-12.1-20.3-12.7-21.4c-1.9-3.5-20.8-34.8-23.1-38.5-1.2-1.9-6.6-10.8-11.9-19.8l-9.7-16.3 10.6-17.7c5.8-9.7 11-18.4 11.5-19.2 13.8-22.8 34.7-57.8 35.3-59 .4-.8 3.2-5.5 6.1-10.5l5.5-8.9-1.7-3c-.9-1.7-2-3.5-2.5-4.1-.9-1.3-44.1-73.5-47.5-79.5-1.4-2.5-3.3-5.6-4.2-7-1-1.4-20.4-33.6-43.1-71.7L559.6.2 489 .1h-70.5l-4.2 7.2c-12.6 22-63.5 106.2-64.3 106.5-.5.2-1.4-.7-2.1-2-.6-1.3-14.6-24.8-31.1-52.3-16.5-27.5-30.5-50.9-31.1-52-.7-1.1-2-3.2-3-4.7L281 .1H140.4L132 14.3z"/></svg>