<?xml version="1.0" standalone="no"?>
<!DOCTYPE svg PUBLIC "-//W3C//DTD SVG 20010904//EN"
 "http://www.w3.org/TR/2001/REC-SVG-20010904/DTD/svg10.dtd">
<svg version="1.0" xmlns="http://www.w3.org/2000/svg"
 width="700.000000pt" height="700.000000pt" viewBox="0 0 700.000000 700.000000"
 preserveAspectRatio="xMidYMid meet">
<metadata>
Created by potrace 1.11, written by Peter Selinger 2001-2013
</metadata>
<g transform="translate(0.000000,700.000000) scale(0.100000,-0.100000)"
fill="#000000" stroke="none">
<path d="M1389 6979 c-5 -11 -7 -19 -4 -19 3 0 -3 -8 -12 -18 -10 -10 -27 -35
-38 -57 -11 -22 -26 -46 -33 -53 -7 -8 -10 -18 -7 -23 4 -5 1 -9 -4 -9 -6 0
-22 -21 -36 -47 -14 -27 -43 -77 -65 -112 -22 -34 -40 -65 -40 -68 0 -3 -9
-18 -21 -34 -11 -16 -17 -29 -13 -29 4 0 0 -6 -9 -12 -9 -7 -17 -19 -19 -27
-2 -8 -11 -23 -21 -33 -10 -10 -15 -23 -12 -27 2 -5 -2 -11 -10 -15 -8 -3 -15
-10 -15 -17 0 -6 -9 -24 -21 -40 -11 -16 -18 -29 -15 -29 3 0 -3 -9 -14 -20
-12 -12 -18 -25 -15 -30 3 -4 1 -10 -4 -12 -10 -3 -123 -188 -115 -188 2 0 -4
-9 -14 -20 -10 -11 -27 -36 -38 -57 -32 -59 -53 -94 -174 -293 -62 -102 -194
-321 -294 -488 -100 -166 -189 -315 -198 -330 -9 -15 -23 -38 -31 -52 -8 -14
-33 -57 -56 -96 l-42 -71 345 -576 345 -577 -127 -212 c-70 -117 -135 -224
-144 -238 -8 -14 -106 -177 -218 -363 l-202 -338 220 -367 c121 -202 273 -456
338 -565 128 -213 141 -234 171 -287 19 -33 513 -859 532 -890 6 -8 40 -65 77
-126 l67 -112 704 1 704 0 340 568 c187 313 344 569 348 569 4 0 19 -20 32
-44 13 -24 166 -279 339 -568 l315 -526 704 2 705 1 278 465 c287 478 398 665
433 725 35 61 137 229 160 265 65 101 525 879 525 889 0 6 -125 219 -277 473
-153 255 -280 466 -281 471 -2 4 -30 51 -63 104 -32 54 -59 101 -59 106 0 4 8
20 19 35 17 26 275 455 316 528 11 19 72 121 135 226 63 105 124 207 135 227
12 20 33 56 49 80 15 24 26 51 23 61 -2 10 -96 170 -208 356 -112 187 -209
348 -215 359 -35 66 -319 531 -326 536 -6 3 -9 9 -9 13 3 14 -30 66 -41 66 -6
0 -9 3 -5 6 3 3 -16 42 -44 86 -27 44 -49 83 -49 87 0 4 -9 17 -20 29 -11 12
-20 23 -19 24 4 10 -26 56 -33 52 -5 -3 -7 -2 -6 3 4 14 -52 113 -63 113 -6 0
-8 3 -5 8 7 11 -40 83 -49 74 -4 -4 -5 -2 -2 4 6 10 -57 124 -75 135 -5 3 -9
9 -9 13 3 19 0 27 -7 22 -5 -3 -9 0 -9 7 0 19 -44 87 -56 87 -6 0 -7 3 -4 7 6
5 -27 69 -42 83 -4 3 -19 31 -36 62 -16 32 -33 58 -36 58 -4 0 -10 11 -13 24
l-6 23 -708 0 -709 1 -324 -541 c-178 -298 -330 -554 -338 -569 -7 -15 -17
-28 -21 -28 -6 0 -350 563 -368 601 -2 4 -74 125 -161 270 l-159 264 -706 1
c-682 2 -707 1 -717 -17z m716 -3479 c3 -5 1 -10 -4 -10 -6 0 -11 5 -11 10 0
6 2 10 4 10 3 0 8 -4 11 -10z"/>
</g>
</svg>
